<?xml version="1.0" encoding="UTF-8" standalone="no"?>
<!-- Generator: Adobe Illustrator 16.0.0, SVG Export Plug-In . SVG Version: 6.00 Build 0)  -->
<svg id="Capa_1" xmlns:rdf="http://www.w3.org/1999/02/22-rdf-syntax-ns#" style="enable-background:new 0 0 16.833 16.833" xmlns="http://www.w3.org/2000/svg" xml:space="preserve" height="512px" viewBox="0 0 16.833 16.833" width="512px" version="1.1" y="0px" x="0px" xmlns:cc="http://creativecommons.org/ns#" xmlns:dc="http://purl.org/dc/elements/1.1/"><metadata id="metadata41"><rdf:RDF><cc:Work rdf:about=""><dc:format>image/svg+xml</dc:format><dc:type rdf:resource="http://purl.org/dc/dcmitype/StillImage"/><dc:title/></cc:Work></rdf:RDF></metadata><g id="g3"><path id="path5" fill="#006df0" d="m11.761 4.845c-0.32-0.509-0.687-1.062-1.155-1.743-0.251-0.363-0.505-0.726-0.759-1.087l-0.205-0.291c-0.213-0.305-0.426-0.61-0.631-0.906-0.14-0.227-0.278-0.382-0.419-0.473-0.096-0.061-0.194-0.092-0.292-0.092h-0.016-0.003c-0.105 0.006-0.207 0.045-0.302 0.12-0.124 0.096-0.235 0.247-0.335 0.446-0.13 0.204-0.261 0.413-0.394 0.621l-0.148 0.23-0.124 0.195c-0.228 0.356-0.454 0.711-0.677 1.067-0.428 0.676-0.761 1.222-1.052 1.717-0.592 1.014-1.047 1.897-1.388 2.702-0.76 1.792-1.012 3.326-0.766 4.693 0.165 0.924 0.565 1.797 1.193 2.59l0.006 0.01 0.009 0.007c0.517 0.499 1.076 0.913 1.663 1.231 0.856 0.463 1.723 0.698 2.574 0.698 0.42 0 0.838-0.06 1.239-0.177 0.307-0.092 0.609-0.219 0.891-0.377 0.31-0.174 0.604-0.389 0.872-0.637 0.901-0.77 1.53-1.608 1.919-2.566 0.103-0.257 0.18-0.531 0.242-0.864 0.042-0.231 0.069-0.47 0.081-0.692 0.142-1.127-0.047-2.32-0.572-3.644-0.331-0.832-0.806-1.74-1.451-2.778zm-4.0673 10.682c-2.456-0.373-4.144-2.667-3.769-5.121 0.063-0.417 0.262-1.568 0.349-1.175 1.177 5.271 5.7843 6.02 5.7843 6.02-0.7253 0.292-1.5363 0.402-2.3643 0.276z"/></g></svg>
