<?xml version="1.0" encoding="UTF-8" standalone="no"?>
<!-- Generator: Adobe Illustrator 18.0.0, SVG Export Plug-In . SVG Version: 6.00 Build 0)  -->

<svg
   xmlns:dc="http://purl.org/dc/elements/1.1/"
   xmlns:cc="http://creativecommons.org/ns#"
   xmlns:rdf="http://www.w3.org/1999/02/22-rdf-syntax-ns#"
   xmlns:svg="http://www.w3.org/2000/svg"
   xmlns="http://www.w3.org/2000/svg"
   xmlns:sodipodi="http://sodipodi.sourceforge.net/DTD/sodipodi-0.dtd"
   xmlns:inkscape="http://www.inkscape.org/namespaces/inkscape"
   version="1.1"
   id="Capa_1"
   x="0px"
   y="0px"
   viewBox="0 0 60 60"
   style="enable-background:new 0 0 60 60;"
   xml:space="preserve"
   inkscape:version="0.91 r13725"
   sodipodi:docname="ventana.svg"
   inkscape:export-filename="/home/feguedi/Documentos/UAQ/5toSemestre/DispLog/modulo_serv/img/cortina_abierta.png"
   inkscape:export-xdpi="768"
   inkscape:export-ydpi="768"><metadata
     id="metadata79"><rdf:RDF><cc:Work
         rdf:about=""><dc:format>image/svg+xml</dc:format><dc:type
           rdf:resource="http://purl.org/dc/dcmitype/StillImage" /><dc:title></dc:title></cc:Work></rdf:RDF></metadata><defs
     id="defs77" /><sodipodi:namedview
     pagecolor="#ffffff"
     bordercolor="#666666"
     borderopacity="1"
     objecttolerance="10"
     gridtolerance="10"
     guidetolerance="10"
     inkscape:pageopacity="0"
     inkscape:pageshadow="2"
     inkscape:window-width="1440"
     inkscape:window-height="872"
     id="namedview75"
     showgrid="false"
     inkscape:zoom="11.125147"
     inkscape:cx="20.387116"
     inkscape:cy="29.246781"
     inkscape:window-x="0"
     inkscape:window-y="0"
     inkscape:window-maximized="1"
     inkscape:current-layer="Capa_1" /><rect
     x="13"
     y="42"
     style="fill:#BCB7B3;"
     width="34"
     height="4"
     id="rect3" /><rect
     x="14"
     y="7"
     style="fill:#7FABDA;"
     width="14"
     height="32"
     id="rect5" /><rect
     x="32"
     y="7"
     style="fill:#7FABDA;"
     width="14"
     height="32"
     id="rect7" /><polygon
     style="fill:#EDE7E9;"
     points="49,7 49,4 11,4 11,7 28,7 28,39 13,39 13,42 47,42 47,39 32,39 32,7 "
     id="polygon9" /><rect
     x="1.2982996"
     y="6.2982993"
     style="fill:#dd352e;stroke:#b02721;stroke-width:2.5965991;stroke-linecap:round;stroke-miterlimit:10"
     width="6.8190861"
     height="52.4034"
     id="rect11" /><polygon
     style="fill:#A4C9EA;"
     points="23,7 28,7 28,12 14,26 14,16 "
     id="polygon39" /><rect
     x="9.0495911"
     y="6.3192711"
     style="fill:#dd352e;stroke:#b02721;stroke-width:2.63854194;stroke-linecap:round;stroke-miterlimit:10"
     width="7.046803"
     height="52.361458"
     id="rect13" /><rect
     x="16.664181"
     y="6.2036405"
     style="fill:#dd352e;stroke:#b02721;stroke-width:2.4072814;stroke-linecap:round;stroke-miterlimit:10"
     width="5.83988"
     height="52.59272"
     id="rect15" /><polygon
     style="fill:#A4C9EA;"
     points="41,7 46,7 46,12 32,26 32,16 "
     id="polygon41" /><line
     style="fill:none;stroke:#556080;stroke-width:2;stroke-linecap:round;stroke-miterlimit:10;"
     x1="31"
     y1="22"
     x2="35"
     y2="22"
     id="line43" /><rect
     x="31.922731"
     y="6.2036405"
     style="fill:#dd352e;stroke:#b02721;stroke-width:2.4072814;stroke-linecap:round;stroke-miterlimit:10"
     width="5.83988"
     height="52.59272"
     id="rect17" /><rect
     x="47.487831"
     y="6.2481308"
     style="fill:#dd352e;stroke:#b02721;stroke-width:2.49626136;stroke-linecap:round;stroke-miterlimit:10"
     width="6.2902188"
     height="52.503738"
     id="rect19" /><rect
     x="53.777756"
     y="6.12605"
     style="fill:#dd352e;stroke:#b02721;stroke-width:2.25210023;stroke-linecap:round;stroke-miterlimit:10"
     width="5.0961967"
     height="52.747898"
     id="rect21" /><line
     style="fill:none;stroke:#38454F;stroke-width:2;stroke-linecap:round;stroke-miterlimit:10;"
     x1="1"
     y1="3"
     x2="59"
     y2="3"
     id="line23" /><path
     inkscape:connector-curvature="0"
     id="path27"
     d="M 3,0 C 2.448,0 2,0.447 2,1 L 2,5 C 2,5.553 2.448,6 3,6 3.552,6 4,5.553 4,5 L 4,1 C 4,0.447 3.552,0 3,0 Z"
     style="fill:#7383bf" /><path
     inkscape:connector-curvature="0"
     id="path29"
     d="m 10.728813,0 c -0.552,0 -0.9999998,0.447 -0.9999998,1 l 0,4 c 0,0.553 0.4479998,1 0.9999998,1 0.552,0 1,-0.447 1,-1 l 0,-4 c 0,-0.553 -0.448,-1 -1,-1 z"
     style="fill:#7383bf" /><path
     inkscape:connector-curvature="0"
     id="path31"
     d="m 18.457626,0 c -0.552,0 -1,0.447 -1,1 l 0,4 c 0,0.553 0.448,1 1,1 0.552,0 1,-0.447 1,-1 l 0,-4 c 0,-0.553 -0.448,-1 -1,-1 z"
     style="fill:#7383bf" /><path
     inkscape:connector-curvature="0"
     id="path35"
     d="m 49.228813,0 c -0.552,0 -1,0.447 -1,1 l 0,4 c 0,0.553 0.448,1 1,1 0.552,0 1,-0.447 1,-1 l 0,-4 c 0,-0.553 -0.448,-1 -1,-1 z"
     style="fill:#7383bf" /><path
     inkscape:connector-curvature="0"
     id="path37"
     d="m 57,0 c -0.552,0 -1,0.447 -1,1 l 0,4 c 0,0.553 0.448,1 1,1 0.552,0 1,-0.447 1,-1 L 58,1 C 58,0.447 57.552,0 57,0 Z"
     style="fill:#7383bf" /><g
     id="g45" /><g
     id="g47" /><g
     id="g49" /><g
     id="g51" /><g
     id="g53" /><g
     id="g55" /><g
     id="g57" /><g
     id="g59" /><g
     id="g61" /><g
     id="g63" /><g
     id="g65" /><g
     id="g67" /><g
     id="g69" /><g
     id="g71" /><g
     id="g73" /><path
     style="fill:#7383bf"
     d="m 33.68644,0 c 0.552,0 1,0.447 1,1 l 0,4 c 0,0.553 -0.448,1 -1,1 -0.552,0 -1,-0.447 -1,-1 l 0,-4 c 0,-0.553 0.448,-1 1,-1 z"
     id="path3428"
     inkscape:connector-curvature="0" /><rect
     id="rect3439"
     height="52.445969"
     width="6.5919929"
     style="fill:#dd352e;stroke:#b02721;stroke-width:2.5540328;stroke-linecap:round;stroke-miterlimit:10"
     y="6.2770166"
     x="39.756413" /><path
     inkscape:connector-curvature="0"
     id="path33"
     d="m 41.457626,0 c -0.552,0 -1,0.447 -1,1 l 0,4 c 0,0.553 0.448,1 1,1 0.552,0 1,-0.447 1,-1 l 0,-4 c 0,-0.553 -0.448,-1 -1,-1 z"
     style="fill:#7383bf" /><rect
     id="rect3441"
     height="52.716122"
     width="5.2441912"
     style="fill:#dd352e;stroke:#b02721;stroke-width:2.2838788;stroke-linecap:round;stroke-miterlimit:10"
     y="6.1419392"
     x="22.80468" /><path
     inkscape:connector-curvature="0"
     id="path31-3"
     d="m 26.18644,0 c -0.552,0 -1,0.447 -1,1 l 0,4 c 0,0.553 0.448,1 1,1 0.552,0 1,-0.447 1,-1 l 0,-4 c 0,-0.553 -0.448,-1 -1,-1 z"
     style="fill:#7383bf" /></svg>